<?xml version="1.0" encoding="UTF-8"?>
<svg id="Layer_1" xmlns="http://www.w3.org/2000/svg" version="1.1" xmlns:xlink="http://www.w3.org/1999/xlink" viewBox="0 0 23 22">
  <!-- Generator: Adobe Illustrator 29.6.1, SVG Export Plug-In . SVG Version: 2.1.1 Build 9)  -->
  <defs>
    <style>
      .st0 {
        fill: #898989;
      }

      .st1 {
        fill: none;
      }

      .st2 {
        fill: #e6ff01;
      }

      .st3 {
        clip-path: url(#clippath);
      }
    </style>
    <clipPath id="clippath">
      <rect class="st1" x=".88" y=".31" width="21.4" height="21.37"/>
    </clipPath>
  </defs>
  <g class="st3">
    <g>
      <ellipse class="st2" cx="8.24" cy="7.66" rx="5.35" ry="5.34"/>
      <path class="st0" d="M9.65,8.14l-1.63.59v3.16h-1.78v-4.41h.01l4.7-1.71c.22-.08.45-.12.7-.12.48.01.95.17,1.34.47.39.29.68.69.82,1.16.17.52.32.87.45,1.05.41.55.95,1,1.57,1.31.62.31,1.3.47,1.99.47v1.78c-.92,0-1.83-.2-2.66-.59-.83-.39-1.57-.96-2.15-1.67l-.62,3.52,1.87,1.57v6.08h-1.78v-5.25l-2.02-1.7-.65,3.68-6.15-1.08.31-1.75,4.39.77,1.29-7.32ZM12.92,5.21c-.47,0-.93-.19-1.26-.52-.33-.33-.52-.79-.52-1.26s.19-.93.52-1.26c.33-.33.79-.52,1.26-.52s.93.19,1.26.52c.33.33.52.79.52,1.26s-.19.93-.52,1.26c-.33.33-.79.52-1.26.52Z"/>
    </g>
  </g>
</svg>