<?xml version="1.0" encoding="UTF-8"?>
<svg id="Layer_1" xmlns="http://www.w3.org/2000/svg" version="1.1" viewBox="0 0 24 24">
  <!-- Generator: Adobe Illustrator 29.6.1, SVG Export Plug-In . SVG Version: 2.1.1 Build 9)  -->
  <defs>
    <style>
      .st0 {
        fill: #232b2f;
      }

      .st1 {
        fill: #e6ff01;
      }
    </style>
  </defs>
  <circle class="st1" cx="8.25" cy="8.25" r="6"/>
  <path class="st0" d="M9.83,8.79l-1.83.67v3.54h-2v-4.95h.01l5.27-1.92c.24-.09.51-.14.78-.13.54.01,1.07.2,1.5.52.43.33.76.78.92,1.3.19.58.36.98.51,1.18.47.62,1.07,1.12,1.76,1.47.69.35,1.46.53,2.24.53v2c-1.03,0-2.05-.23-2.99-.67-.93-.44-1.76-1.08-2.42-1.88l-.7,3.96,2.1,1.76v6.83h-2v-5.9l-2.27-1.9-.73,4.13-6.89-1.22.35-1.97,4.92.87,1.45-8.22ZM13.5,5.5c-.53,0-1.04-.21-1.41-.59-.38-.38-.59-.88-.59-1.41s.21-1.04.59-1.41c.38-.38.88-.59,1.41-.59s1.04.21,1.41.59c.38.38.59.88.59,1.41s-.21,1.04-.59,1.41c-.38.38-.88.59-1.41.59Z"/>
</svg>