<?xml version="1.0" encoding="UTF-8"?>
<svg id="Layer_1" xmlns="http://www.w3.org/2000/svg" version="1.1" xmlns:xlink="http://www.w3.org/1999/xlink" viewBox="0 0 20 20">
  <!-- Generator: Adobe Illustrator 29.6.1, SVG Export Plug-In . SVG Version: 2.1.1 Build 9)  -->
  <defs>
    <style>
      .st0 {
        fill: none;
      }

      .st1 {
        fill: #e6ff01;
      }

      .st2 {
        fill-rule: evenodd;
      }

      .st3 {
        clip-path: url(#clippath);
      }
    </style>
    <clipPath id="clippath">
      <rect class="st0" x="4" y="4" width="12" height="12"/>
    </clipPath>
  </defs>
  <path class="st2" d="M8.78.75c.22-.45.68-.75,1.22-.75s.99.31,1.22.75c.33-.37.86-.55,1.37-.41.51.14.88.55.98,1.04.42-.28.97-.31,1.43-.04.46.27.71.76.68,1.26.47-.16,1.02-.05,1.39.33.38.38.49.92.33,1.39.5-.03,1,.21,1.26.68.27.46.23,1.01-.04,1.43.49.1.91.47,1.04.98.14.52-.04,1.04-.41,1.37.45.22.75.68.75,1.22s-.31.99-.75,1.22c.37.33.55.86.41,1.37-.14.51-.55.88-1.04.98.28.42.31.97.04,1.43-.27.46-.76.71-1.26.68.16.47.05,1.02-.33,1.39-.38.38-.92.49-1.39.33.03.5-.22.99-.68,1.26-.46.27-1.01.23-1.43-.04-.1.49-.47.9-.98,1.04-.52.14-1.04-.04-1.37-.41-.22.45-.68.75-1.22.75s-.99-.31-1.22-.75c-.33.37-.86.55-1.37.41-.52-.14-.88-.55-.98-1.04-.42.28-.97.31-1.43.04-.46-.27-.71-.76-.68-1.26-.47.16-1.02.05-1.4-.33-.38-.38-.49-.92-.33-1.39-.5.03-.99-.22-1.26-.68-.27-.46-.23-1.02.04-1.43-.49-.1-.9-.47-1.04-.98-.14-.51.04-1.04.41-1.37-.45-.22-.75-.68-.75-1.22s.31-.99.75-1.22c-.37-.33-.55-.86-.41-1.37.14-.52.55-.88,1.04-.98-.28-.42-.31-.97-.04-1.43.27-.46.76-.71,1.26-.68-.16-.47-.05-1.02.33-1.39s.92-.49,1.4-.33c-.03-.5.22-1,.68-1.26.46-.27,1.02-.23,1.43.04.1-.49.47-.91.98-1.04.51-.14,1.04.04,1.37.41Z"/>
  <g class="st3">
    <path class="st1" d="M12.75,14.5c-.46,0-.91-.18-1.24-.51s-.51-.77-.51-1.24.18-.91.51-1.24.77-.51,1.24-.51.91.18,1.24.51.51.77.51,1.24-.18.91-.51,1.24-.77.51-1.24.51ZM7.25,9c-.23,0-.46-.05-.67-.13-.21-.09-.41-.22-.57-.38-.16-.16-.29-.36-.38-.57-.09-.21-.13-.44-.13-.67s.05-.46.13-.67c.09-.21.22-.41.38-.57.16-.16.36-.29.57-.38.21-.09.44-.13.67-.13.46,0,.91.18,1.24.51.33.33.51.77.51,1.24s-.18.91-.51,1.24-.77.51-1.24.51ZM13.54,5.76l.71.71-7.78,7.78-.71-.71,7.78-7.78h0Z"/>
  </g>
</svg>