<?xml version="1.0" encoding="UTF-8"?>
<svg id="Layer_1" xmlns="http://www.w3.org/2000/svg" version="1.1" viewBox="0 0 14 14">
  <!-- Generator: Adobe Illustrator 29.6.1, SVG Export Plug-In . SVG Version: 2.1.1 Build 9)  -->
  <path d="M6.59.35c-.49.46-.89,1.01-1.16,1.62s-.42,1.28-.43,1.95c-.01.67.11,1.34.36,1.96.25.62.63,1.19,1.1,1.66.47.47,1.04.85,1.66,1.1.62.25,1.29.37,1.96.36.67-.01,1.33-.16,1.95-.43.61-.27,1.17-.67,1.62-1.16-.21,3.49-3.11,6.25-6.65,6.25S.33,10.68.33,7,3.1.56,6.59.35Z"/>
</svg>