<?xml version="1.0" encoding="UTF-8"?>
<svg id="Layer_1" xmlns="http://www.w3.org/2000/svg" version="1.1" viewBox="0 0 26 26">
  <!-- Generator: Adobe Illustrator 29.6.1, SVG Export Plug-In . SVG Version: 2.1.1 Build 9)  -->
  <defs>
    <style>
      .st0 {
        fill: #e6ff01;
      }
    </style>
  </defs>
  <path d="M4.23,19.68c-.53.4-.64,1.17-.18,1.66,1.17,1.26,2.6,2.26,4.19,2.93,1.96.83,4.11,1.13,6.23.88,2.12-.26,4.13-1.06,5.84-2.33,1.71-1.27,3.06-2.97,3.91-4.93.85-1.96,1.18-4.1.95-6.22-.23-2.12-1.01-4.14-2.27-5.87-1.25-1.73-2.94-3.09-4.88-3.97-1.58-.71-3.28-1.07-5-1.07-.67,0-1.15.6-1.09,1.26h0c.07.66.66,1.14,1.33,1.16,1.3.03,2.58.32,3.77.86,1.56.7,2.91,1.8,3.92,3.18,1.01,1.38,1.63,3.01,1.82,4.71.19,1.7-.08,3.42-.76,4.99-.68,1.57-1.77,2.93-3.14,3.95-1.37,1.02-2.99,1.67-4.69,1.87-1.7.2-3.42-.04-5-.7-1.2-.51-2.29-1.25-3.2-2.18-.47-.48-1.22-.59-1.75-.18h0Z"/>
  <path class="st0" d="M9.66,2.54c-.06-.2-.28-.31-.48-.24-1.44.51-2.77,1.32-3.89,2.36-1.22,1.13-2.18,2.51-2.81,4.05-.63,1.54-.91,3.2-.83,4.86.08,1.53.46,3.03,1.13,4.41.09.19.32.26.51.16h0c.19-.1.26-.33.17-.52-.62-1.28-.97-2.67-1.04-4.09-.08-1.55.19-3.09.77-4.53.59-1.44,1.48-2.72,2.62-3.78,1.04-.97,2.27-1.71,3.61-2.19.2-.07.31-.29.25-.49h0Z"/>
</svg>