<?xml version="1.0" encoding="UTF-8"?>
<svg id="Layer_1" xmlns="http://www.w3.org/2000/svg" version="1.1" viewBox="0 0 20 19">
  <!-- Generator: Adobe Illustrator 29.6.1, SVG Export Plug-In . SVG Version: 2.1.1 Build 9)  -->
  <defs>
    <style>
      .st0 {
        fill: #e6ff01;
      }
    </style>
  </defs>
  <g id="Layer_2">
    <rect class="st0" x="6" y="8.89" width="8.07" height="5.15"/>
  </g>
  <path d="M10,.42l3.52,5.15,5.99,1.76-3.81,4.94.18,6.24-5.88-2.1-5.88,2.1.18-6.24L.49,7.33l5.99-1.76L10,.42ZM8.33,10h-1.67c0,.87.34,1.7.95,2.33.61.62,1.43.98,2.3,1.01.87.02,1.71-.3,2.35-.89.64-.59,1.02-1.41,1.06-2.28v-.17s-1.66,0-1.66,0c0,.43-.16.85-.46,1.16-.3.31-.71.5-1.14.51-.43.02-.85-.14-1.18-.43-.32-.29-.52-.69-.55-1.12v-.12Z"/>
</svg>